<?xml version="1.0" encoding="UTF-8" standalone="no"?>
<!DOCTYPE svg PUBLIC "-//W3C//DTD SVG 1.1//EN"
 "http://www.w3.org/Graphics/SVG/1.1/DTD/svg11.dtd">
<!-- Generated by graphviz version 12.2.1 (20241206.2353)
 -->
<!-- Title: Tree Pages: 1 -->
<svg width="158pt" height="133pt"
 viewBox="0.00 0.00 157.50 132.50" xmlns="http://www.w3.org/2000/svg" xmlns:xlink="http://www.w3.org/1999/xlink">
<g id="graph0" class="graph" transform="scale(1 1) rotate(0) translate(4 128.5)">
<title>Tree</title>
<polygon fill="white" stroke="none" points="-4,4 -4,-128.5 153.5,-128.5 153.5,4 -4,4"/>
<!-- page0_node0 -->
<g id="node1" class="node">
<title>page0_node0</title>
<polygon fill="none" stroke="black" points="122.88,-124.5 26.62,-124.5 26.62,-88.5 122.88,-88.5 122.88,-124.5"/>
<text text-anchor="middle" x="74.75" y="-101.45" font-family="Times New Roman,serif" font-size="14.00">x1 &gt; 0.261719</text>
</g>
<!-- page0_node1 -->
<g id="node2" class="node">
<title>page0_node1</title>
<polygon fill="none" stroke="black" points="65.5,-36 0,-36 0,0 65.5,0 65.5,-36"/>
<text text-anchor="middle" x="32.75" y="-12.95" font-family="Times New Roman,serif" font-size="14.00">0, 0, 0, 0</text>
</g>
<!-- page0_node0&#45;&gt;page0_node1 -->
<g id="edge1" class="edge">
<title>page0_node0&#45;&gt;page0_node1</title>
<path fill="none" stroke="black" d="M66.45,-88.41C60.68,-76.52 52.86,-60.41 46.2,-46.7"/>
<polygon fill="black" stroke="black" points="49.35,-45.18 41.84,-37.71 43.05,-48.24 49.35,-45.18"/>
<text text-anchor="middle" x="68.76" y="-57.2" font-family="Times New Roman,serif" font-size="14.00">Left</text>
</g>
<!-- page0_node9 -->
<g id="node3" class="node">
<title>page0_node9</title>
<polygon fill="none" stroke="black" points="149.5,-36 84,-36 84,0 149.5,0 149.5,-36"/>
<text text-anchor="middle" x="116.75" y="-12.95" font-family="Times New Roman,serif" font-size="14.00">0, 0, 0, 0</text>
</g>
<!-- page0_node0&#45;&gt;page0_node9 -->
<g id="edge2" class="edge">
<title>page0_node0&#45;&gt;page0_node9</title>
<path fill="none" stroke="black" d="M83.05,-88.41C88.82,-76.52 96.64,-60.41 103.3,-46.7"/>
<polygon fill="black" stroke="black" points="106.45,-48.24 107.66,-37.71 100.15,-45.18 106.45,-48.24"/>
<text text-anchor="middle" x="114.51" y="-57.2" font-family="Times New Roman,serif" font-size="14.00">Right</text>
</g>
</g>
</svg>
